# 3ds Max Wavefront OBJ Exporter v0.97b - (c)2007 guruware
# File Created: 31.03.2016 14:23:16

#
# object Cylinder01
#

v  -18.810180664 0.000000000 -3.856948853
v  17.344200134 0.000000000 -17.016067505
v  19.664508820 0.000000000 -3.856948853
v  10.663141251 0.000000000 -28.588003159
v  0.427162170 0.000000000 -37.177009583
v  -12.129123688 0.000000000 -41.747123718
v  -25.491245270 0.000000000 -41.747119904
v  -38.047527313 0.000000000 -37.177005768
v  -48.283500671 0.000000000 -28.588003159
v  -54.964561462 0.000000000 -17.016071320
v  -57.284870148 0.000000000 -3.856954575
v  -54.964565277 0.000000000 9.302162170
v  -48.283508301 0.000000000 20.874095917
v  -38.047538757 0.000000000 29.463100433
v  -25.491256714 0.000000000 34.033222198
v  -12.129139900 0.000000000 34.033226013
v  0.427145004 0.000000000 29.463119507
v  10.663125992 0.000000000 20.874124527
v  17.344192505 0.000000000 9.302195549
v  17.344200134 9.155306816 -17.016067505
v  19.664508820 9.155306816 -3.856948853
v  10.663141251 9.155306816 -28.588003159
v  0.427162170 9.155306816 -37.177009583
v  -12.129123688 9.155306816 -41.747123718
v  -25.491245270 9.155306816 -41.747119904
v  -38.047527313 9.155306816 -37.177005768
v  -48.283500671 9.155306816 -28.588003159
v  -54.964561462 9.155306816 -17.016071320
v  -57.284870148 9.155306816 -3.856954575
v  -54.964565277 9.155306816 9.302162170
v  -48.283508301 9.155306816 20.874095917
v  -38.047538757 9.155306816 29.463100433
v  -25.491256714 9.155306816 34.033222198
v  -12.129139900 9.155306816 34.033226013
v  0.427145004 9.155306816 29.463119507
v  10.663125992 9.155306816 20.874124527
v  17.344192505 9.155306816 9.302195549
v  17.344200134 18.310613632 -17.016067505
v  19.664508820 18.310613632 -3.856948853
v  10.663141251 18.310613632 -28.588003159
v  0.427162170 18.310613632 -37.177009583
v  -12.129123688 18.310613632 -41.747123718
v  -25.491245270 18.310613632 -41.747119904
v  -38.047527313 18.310613632 -37.177005768
v  -48.283500671 18.310613632 -28.588003159
v  -54.964561462 18.310613632 -17.016071320
v  -57.284870148 18.310613632 -3.856954575
v  -54.964565277 18.310613632 9.302162170
v  -48.283508301 18.310613632 20.874095917
v  -38.047538757 18.310613632 29.463100433
v  -25.491256714 18.310613632 34.033222198
v  -12.129139900 18.310613632 34.033226013
v  0.427145004 18.310613632 29.463119507
v  10.663125992 18.310613632 20.874124527
v  17.344192505 18.310613632 9.302195549
v  17.344200134 27.465919495 -17.016067505
v  19.664508820 27.465919495 -3.856948853
v  10.663141251 27.465919495 -28.588003159
v  0.427162170 27.465919495 -37.177009583
v  -12.129123688 27.465919495 -41.747123718
v  -25.491245270 27.465919495 -41.747119904
v  -38.047527313 27.465919495 -37.177005768
v  -48.283500671 27.465919495 -28.588003159
v  -54.964561462 27.465919495 -17.016071320
v  -57.284870148 27.465919495 -3.856954575
v  -54.964565277 27.465919495 9.302162170
v  -48.283508301 27.465919495 20.874095917
v  -38.047538757 27.465919495 29.463100433
v  -25.491256714 27.465919495 34.033222198
v  -12.129139900 27.465919495 34.033226013
v  0.427145004 27.465919495 29.463119507
v  10.663125992 27.465919495 20.874124527
v  17.344192505 27.465919495 9.302195549
v  17.344200134 36.621227264 -17.016067505
v  19.664508820 36.621227264 -3.856948853
v  10.663141251 36.621227264 -28.588003159
v  0.427162170 36.621227264 -37.177009583
v  -12.129123688 36.621227264 -41.747123718
v  -25.491245270 36.621227264 -41.747119904
v  -38.047527313 36.621227264 -37.177005768
v  -48.283500671 36.621227264 -28.588003159
v  -54.964561462 36.621227264 -17.016071320
v  -57.284870148 36.621227264 -3.856954575
v  -54.964565277 36.621227264 9.302162170
v  -48.283508301 36.621227264 20.874095917
v  -38.047538757 36.621227264 29.463100433
v  -25.491256714 36.621227264 34.033222198
v  -12.129139900 36.621227264 34.033226013
v  0.427145004 36.621227264 29.463119507
v  10.663125992 36.621227264 20.874124527
v  17.344192505 36.621227264 9.302195549
v  17.344200134 45.776531219 -17.016067505
v  19.664508820 45.776531219 -3.856948853
v  10.663141251 45.776531219 -28.588003159
v  0.427162170 45.776531219 -37.177009583
v  -12.129123688 45.776531219 -41.747123718
v  -25.491245270 45.776531219 -41.747119904
v  -38.047527313 45.776531219 -37.177005768
v  -48.283500671 45.776531219 -28.588003159
v  -54.964561462 45.776531219 -17.016071320
v  -57.284870148 45.776531219 -3.856954575
v  -54.964565277 45.776531219 9.302162170
v  -48.283508301 45.776531219 20.874095917
v  -38.047538757 45.776531219 29.463100433
v  -25.491256714 45.776531219 34.033222198
v  -12.129139900 45.776531219 34.033226013
v  0.427145004 45.776531219 29.463119507
v  10.663125992 45.776531219 20.874124527
v  17.344192505 45.776531219 9.302195549
v  -18.810180664 45.776531219 -3.856948853
# 110 vertices

vn 0.000000000 -1.000000000 -0.000000000
vn 1.000000000 0.000000000 0.000000135
vn 0.939692616 0.000000000 -0.342020124
vn 1.000000000 0.000000000 0.000000120
vn 0.939692616 0.000000000 -0.342020154
vn 0.766044438 0.000000000 -0.642787576
vn 0.766044497 0.000000000 -0.642787576
vn 0.500000000 0.000000000 -0.866025388
vn 0.499999970 0.000000000 -0.866025448
vn 0.173648044 0.000000000 -0.984807789
vn -0.173648372 0.000000000 -0.984807730
vn -0.500000000 0.000000000 -0.866025388
vn -0.766044378 0.000000000 -0.642787635
vn -0.766044438 0.000000000 -0.642787635
vn -0.939692616 0.000000000 -0.342020184
vn -1.000000000 0.000000000 -0.000000135
vn -1.000000000 0.000000000 -0.000000144
vn -0.939692676 0.000000000 0.342019945
vn -0.939692676 0.000000000 0.342019975
vn -0.766044557 0.000000000 0.642787457
vn -0.500000358 0.000000000 0.866025209
vn -0.173648641 0.000000000 0.984807670
vn 0.173647761 0.000000000 0.984807849
vn 0.173647776 0.000000000 0.984807849
vn 0.499999493 0.000000000 0.866025686
vn 0.499999523 0.000000000 0.866025686
vn 0.766044021 0.000000000 0.642788172
vn 0.766044021 0.000000000 0.642788112
vn 0.939692438 0.000000000 0.342020631
vn 0.939692438 0.000000000 0.342020571
vn 1.000000000 0.000000000 0.000000116
vn -1.000000000 0.000000000 -0.000000132
vn -0.766044617 0.000000000 0.642787457
vn 0.173647746 0.000000000 0.984807849
vn 0.499999434 0.000000000 0.866025746
vn 1.000000000 0.000000000 0.000000125
vn 0.766044497 0.000000000 -0.642787516
vn -0.173648357 0.000000000 -0.984807730
vn -0.499999970 0.000000000 -0.866025448
vn -0.939692616 0.000000000 -0.342020214
vn -1.000000000 0.000000000 -0.000000140
vn -0.939692736 0.000000000 0.342019916
vn -0.173648626 0.000000000 0.984807670
vn -1.000000000 0.000000000 -0.000000138
vn 1.000000000 0.000000000 0.000000111
vn 0.766044438 0.000000000 -0.642787635
vn 0.173648030 0.000000000 -0.984807789
vn -1.000000000 0.000000000 -0.000000125
vn -0.173648685 0.000000000 0.984807670
vn 0.766043961 0.000000000 0.642788172
vn 0.000000000 1.000000000 -0.000000000
# 51 vertex normals

vt 0.500000000 0.000000000 0.000000000
vt 0.805555522 0.000000000 1.000000000
vt 0.750000000 0.000000000 1.000000000
vt 0.861111045 0.000000000 1.000000000
vt 0.916666687 0.000000000 1.000000000
vt 0.972222209 0.000000000 1.000000000
vt 0.027777810 0.000000000 1.000000000
vt -0.027777791 0.000000000 1.000000000
vt 0.083333351 0.000000000 1.000000000
vt 0.138888896 0.000000000 0.999999940
vt 0.194444433 0.000000000 1.000000000
vt 0.249999985 0.000000000 1.000000000
vt 0.305555522 0.000000000 1.000000000
vt 0.361111075 0.000000000 1.000000000
vt 0.416666597 0.000000000 0.999999940
vt 0.472222149 0.000000000 1.000000000
vt 0.527777672 0.000000000 1.000000000
vt 0.583333254 0.000000000 1.000000000
vt 0.638888836 0.000000000 1.000000000
vt 0.694444358 0.000000000 1.000000000
vt 0.805555522 0.200000018 1.000000000
vt 0.750000000 0.200000018 1.000000000
vt 0.861111045 0.200000018 1.000000000
vt 0.916666687 0.200000018 1.000000000
vt 0.972222209 0.200000018 1.000000000
vt 0.027777810 0.200000018 1.000000000
vt -0.027777791 0.200000018 1.000000000
vt 0.083333351 0.200000018 1.000000000
vt 0.138888896 0.200000018 0.999999940
vt 0.194444433 0.200000018 1.000000000
vt 0.249999985 0.200000018 1.000000000
vt 0.305555522 0.200000018 1.000000000
vt 0.361111075 0.200000018 1.000000000
vt 0.416666597 0.200000018 0.999999940
vt 0.472222149 0.200000018 1.000000000
vt 0.527777672 0.200000018 1.000000000
vt 0.583333254 0.200000018 1.000000000
vt 0.638888836 0.200000018 1.000000000
vt 0.694444358 0.200000018 1.000000000
vt 0.805555522 0.400000036 1.000000000
vt 0.750000000 0.400000036 1.000000000
vt 0.861111045 0.400000036 1.000000000
vt 0.916666687 0.400000036 1.000000000
vt 0.972222209 0.400000036 1.000000000
vt 0.027777810 0.400000036 1.000000000
vt -0.027777791 0.400000036 1.000000000
vt 0.083333351 0.400000036 1.000000000
vt 0.138888896 0.400000036 0.999999940
vt 0.194444433 0.400000036 1.000000000
vt 0.249999985 0.400000036 1.000000000
vt 0.305555522 0.400000036 1.000000000
vt 0.361111075 0.400000036 1.000000000
vt 0.416666597 0.400000036 0.999999940
vt 0.472222149 0.400000036 1.000000000
vt 0.527777672 0.400000036 1.000000000
vt 0.583333254 0.400000036 1.000000000
vt 0.638888836 0.400000036 1.000000000
vt 0.694444358 0.400000036 1.000000000
vt 0.805555522 0.600000024 1.000000000
vt 0.750000000 0.600000024 1.000000000
vt 0.861111045 0.600000024 1.000000000
vt 0.916666687 0.600000024 1.000000000
vt 0.972222209 0.600000024 1.000000000
vt 0.027777810 0.600000024 1.000000000
vt -0.027777791 0.600000024 1.000000000
vt 0.083333351 0.600000024 1.000000000
vt 0.138888896 0.600000024 0.999999940
vt 0.194444433 0.600000024 1.000000000
vt 0.249999985 0.600000024 1.000000000
vt 0.305555522 0.600000024 1.000000000
vt 0.361111075 0.600000024 1.000000000
vt 0.416666597 0.600000024 0.999999940
vt 0.472222149 0.600000024 1.000000000
vt 0.527777672 0.600000024 1.000000000
vt 0.583333254 0.600000024 1.000000000
vt 0.638888836 0.600000024 1.000000000
vt 0.694444358 0.600000024 1.000000000
vt 0.805555522 0.800000072 1.000000000
vt 0.750000000 0.800000072 1.000000000
vt 0.861111045 0.800000072 1.000000000
vt 0.916666687 0.800000072 1.000000000
vt 0.972222209 0.800000072 1.000000000
vt 0.027777810 0.800000072 1.000000000
vt -0.027777791 0.800000072 1.000000000
vt 0.083333351 0.800000072 1.000000000
vt 0.138888896 0.800000072 0.999999940
vt 0.194444433 0.800000072 1.000000000
vt 0.249999985 0.800000072 1.000000000
vt 0.305555522 0.800000072 1.000000000
vt 0.361111075 0.800000072 1.000000000
vt 0.416666597 0.800000072 0.999999940
vt 0.472222149 0.800000072 1.000000000
vt 0.527777672 0.800000072 1.000000000
vt 0.583333254 0.800000072 1.000000000
vt 0.638888836 0.800000072 1.000000000
vt 0.694444358 0.800000072 1.000000000
vt 0.805555522 1.000000000 1.000000000
vt 0.750000000 1.000000000 1.000000000
vt 0.861111045 1.000000000 1.000000000
vt 0.916666687 1.000000000 1.000000000
vt 0.972222209 1.000000000 1.000000000
vt 0.027777810 1.000000000 1.000000000
vt -0.027777791 1.000000000 1.000000000
vt 0.083333351 1.000000000 1.000000000
vt 0.138888896 1.000000000 0.999999940
vt 0.194444433 1.000000000 1.000000000
vt 0.249999985 1.000000000 1.000000000
vt 0.305555522 1.000000000 1.000000000
vt 0.361111075 1.000000000 1.000000000
vt 0.416666597 1.000000000 0.999999940
vt 0.472222149 1.000000000 1.000000000
vt 0.527777672 1.000000000 1.000000000
vt 0.583333254 1.000000000 1.000000000
vt 0.638888836 1.000000000 1.000000000
vt 0.694444358 1.000000000 1.000000000
vt 0.500000000 1.000000000 0.000000000
# 116 texture coords

g Cylinder01
f 1/1/1 2/2/1 3/3/1 
f 1/1/1 4/4/1 2/2/1 
f 1/1/1 5/5/1 4/4/1 
f 1/1/1 6/6/1 5/5/1 
f 1/1/1 7/7/1 6/8/1 
f 1/1/1 8/9/1 7/7/1 
f 1/1/1 9/10/1 8/9/1 
f 1/1/1 10/11/1 9/10/1 
f 1/1/1 11/12/1 10/11/1 
f 1/1/1 12/13/1 11/12/1 
f 1/1/1 13/14/1 12/13/1 
f 1/1/1 14/15/1 13/14/1 
f 1/1/1 15/16/1 14/15/1 
f 1/1/1 16/17/1 15/16/1 
f 1/1/1 17/18/1 16/17/1 
f 1/1/1 18/19/1 17/18/1 
f 1/1/1 19/20/1 18/19/1 
f 1/1/1 3/3/1 19/20/1 
f 3/3/2 20/21/3 21/22/4 
f 3/3/2 2/2/5 20/21/3 
f 2/2/5 22/23/6 20/21/3 
f 2/2/5 4/4/7 22/23/6 
f 4/4/7 23/24/8 22/23/6 
f 4/4/7 5/5/9 23/24/8 
f 5/5/9 24/25/10 23/24/8 
f 5/5/9 6/6/10 24/25/10 
f 6/8/10 25/26/11 24/27/10 
f 6/8/10 7/7/11 25/26/11 
f 7/7/11 26/28/12 25/26/11 
f 7/7/11 8/9/12 26/28/12 
f 8/9/12 27/29/13 26/28/12 
f 8/9/12 9/10/14 27/29/13 
f 9/10/14 28/30/15 27/29/13 
f 9/10/14 10/11/15 28/30/15 
f 10/11/15 29/31/16 28/30/15 
f 10/11/15 11/12/17 29/31/16 
f 11/12/17 30/32/18 29/31/16 
f 11/12/17 12/13/19 30/32/18 
f 12/13/19 31/33/20 30/32/18 
f 12/13/19 13/14/20 31/33/20 
f 13/14/20 32/34/21 31/33/20 
f 13/14/20 14/15/21 32/34/21 
f 14/15/21 33/35/22 32/34/21 
f 14/15/21 15/16/22 33/35/22 
f 15/16/22 34/36/23 33/35/22 
f 15/16/22 16/17/24 34/36/23 
f 16/17/24 35/37/25 34/36/23 
f 16/17/24 17/18/26 35/37/25 
f 17/18/26 36/38/27 35/37/25 
f 17/18/26 18/19/28 36/38/27 
f 18/19/28 37/39/29 36/38/27 
f 18/19/28 19/20/30 37/39/29 
f 19/20/30 21/22/4 37/39/29 
f 19/20/30 3/3/2 21/22/4 
f 21/22/4 38/40/3 39/41/31 
f 21/22/4 20/21/3 38/40/3 
f 20/21/3 40/42/6 38/40/3 
f 20/21/3 22/23/6 40/42/6 
f 22/23/6 41/43/8 40/42/6 
f 22/23/6 23/24/8 41/43/8 
f 23/24/8 42/44/10 41/43/8 
f 23/24/8 24/25/10 42/44/10 
f 24/27/10 43/45/11 42/46/10 
f 24/27/10 25/26/11 43/45/11 
f 25/26/11 44/47/12 43/45/11 
f 25/26/11 26/28/12 44/47/12 
f 26/28/12 45/48/14 44/47/12 
f 26/28/12 27/29/13 45/48/14 
f 27/29/13 46/49/15 45/48/14 
f 27/29/13 28/30/15 46/49/15 
f 28/30/15 47/50/32 46/49/15 
f 28/30/15 29/31/16 47/50/32 
f 29/31/16 48/51/18 47/50/32 
f 29/31/16 30/32/18 48/51/18 
f 30/32/18 49/52/33 48/51/18 
f 30/32/18 31/33/20 49/52/33 
f 31/33/20 50/53/21 49/52/33 
f 31/33/20 32/34/21 50/53/21 
f 32/34/21 51/54/22 50/53/21 
f 32/34/21 33/35/22 51/54/22 
f 33/35/22 52/55/34 51/54/22 
f 33/35/22 34/36/23 52/55/34 
f 34/36/23 53/56/35 52/55/34 
f 34/36/23 35/37/25 53/56/35 
f 35/37/25 54/57/27 53/56/35 
f 35/37/25 36/38/27 54/57/27 
f 36/38/27 55/58/29 54/57/27 
f 36/38/27 37/39/29 55/58/29 
f 37/39/29 39/41/31 55/58/29 
f 37/39/29 21/22/4 39/41/31 
f 39/41/31 56/59/3 57/60/36 
f 39/41/31 38/40/3 56/59/3 
f 38/40/3 58/61/37 56/59/3 
f 38/40/3 40/42/6 58/61/37 
f 40/42/6 59/62/8 58/61/37 
f 40/42/6 41/43/8 59/62/8 
f 41/43/8 60/63/10 59/62/8 
f 41/43/8 42/44/10 60/63/10 
f 42/46/10 61/64/38 60/65/10 
f 42/46/10 43/45/11 61/64/38 
f 43/45/11 62/66/39 61/64/38 
f 43/45/11 44/47/12 62/66/39 
f 44/47/12 63/67/13 62/66/39 
f 44/47/12 45/48/14 63/67/13 
f 45/48/14 64/68/40 63/67/13 
f 45/48/14 46/49/15 64/68/40 
f 46/49/15 65/69/41 64/68/40 
f 46/49/15 47/50/32 65/69/41 
f 47/50/32 66/70/42 65/69/41 
f 47/50/32 48/51/18 66/70/42 
f 48/51/18 67/71/20 66/70/42 
f 48/51/18 49/52/33 67/71/20 
f 49/52/33 68/72/21 67/71/20 
f 49/52/33 50/53/21 68/72/21 
f 50/53/21 69/73/43 68/72/21 
f 50/53/21 51/54/22 69/73/43 
f 51/54/22 70/74/23 69/73/43 
f 51/54/22 52/55/34 70/74/23 
f 52/55/34 71/75/35 70/74/23 
f 52/55/34 53/56/35 71/75/35 
f 53/56/35 72/76/27 71/75/35 
f 53/56/35 54/57/27 72/76/27 
f 54/57/27 73/77/29 72/76/27 
f 54/57/27 55/58/29 73/77/29 
f 55/58/29 57/60/36 73/77/29 
f 55/58/29 39/41/31 57/60/36 
f 57/60/36 74/78/5 75/79/31 
f 57/60/36 56/59/3 74/78/5 
f 56/59/3 76/80/6 74/78/5 
f 56/59/3 58/61/37 76/80/6 
f 58/61/37 77/81/8 76/80/6 
f 58/61/37 59/62/8 77/81/8 
f 59/62/8 78/82/10 77/81/8 
f 59/62/8 60/63/10 78/82/10 
f 60/65/10 79/83/11 78/84/10 
f 60/65/10 61/64/38 79/83/11 
f 61/64/38 80/85/12 79/83/11 
f 61/64/38 62/66/39 80/85/12 
f 62/66/39 81/86/14 80/85/12 
f 62/66/39 63/67/13 81/86/14 
f 63/67/13 82/87/40 81/86/14 
f 63/67/13 64/68/40 82/87/40 
f 64/68/40 83/88/44 82/87/40 
f 64/68/40 65/69/41 83/88/44 
f 65/69/41 84/89/42 83/88/44 
f 65/69/41 66/70/42 84/89/42 
f 66/70/42 85/90/20 84/89/42 
f 66/70/42 67/71/20 85/90/20 
f 67/71/20 86/91/21 85/90/20 
f 67/71/20 68/72/21 86/91/21 
f 68/72/21 87/92/22 86/91/21 
f 68/72/21 69/73/43 87/92/22 
f 69/73/43 88/93/23 87/92/22 
f 69/73/43 70/74/23 88/93/23 
f 70/74/23 89/94/25 88/93/23 
f 70/74/23 71/75/35 89/94/25 
f 71/75/35 90/95/27 89/94/25 
f 71/75/35 72/76/27 90/95/27 
f 72/76/27 91/96/29 90/95/27 
f 72/76/27 73/77/29 91/96/29 
f 73/77/29 75/79/31 91/96/29 
f 73/77/29 57/60/36 75/79/31 
f 75/79/31 92/97/5 93/98/45 
f 75/79/31 74/78/5 92/97/5 
f 74/78/5 94/99/46 92/97/5 
f 74/78/5 76/80/6 94/99/46 
f 76/80/6 95/100/8 94/99/46 
f 76/80/6 77/81/8 95/100/8 
f 77/81/8 96/101/47 95/100/8 
f 77/81/8 78/82/10 96/101/47 
f 78/84/10 97/102/11 96/103/47 
f 78/84/10 79/83/11 97/102/11 
f 79/83/11 98/104/12 97/102/11 
f 79/83/11 80/85/12 98/104/12 
f 80/85/12 99/105/14 98/104/12 
f 80/85/12 81/86/14 99/105/14 
f 81/86/14 100/106/40 99/105/14 
f 81/86/14 82/87/40 100/106/40 
f 82/87/40 101/107/48 100/106/40 
f 82/87/40 83/88/44 101/107/48 
f 83/88/44 102/108/42 101/107/48 
f 83/88/44 84/89/42 102/108/42 
f 84/89/42 103/109/33 102/108/42 
f 84/89/42 85/90/20 103/109/33 
f 85/90/20 104/110/21 103/109/33 
f 85/90/20 86/91/21 104/110/21 
f 86/91/21 105/111/49 104/110/21 
f 86/91/21 87/92/22 105/111/49 
f 87/92/22 106/112/24 105/111/49 
f 87/92/22 88/93/23 106/112/24 
f 88/93/23 107/113/35 106/112/24 
f 88/93/23 89/94/25 107/113/35 
f 89/94/25 108/114/50 107/113/35 
f 89/94/25 90/95/27 108/114/50 
f 90/95/27 109/115/30 108/114/50 
f 90/95/27 91/96/29 109/115/30 
f 91/96/29 93/98/45 109/115/30 
f 91/96/29 75/79/31 93/98/45 
f 110/116/51 93/98/51 92/97/51 
f 110/116/51 92/97/51 94/99/51 
f 110/116/51 94/99/51 95/100/51 
f 110/116/51 95/100/51 96/101/51 
f 110/116/51 96/103/51 97/102/51 
f 110/116/51 97/102/51 98/104/51 
f 110/116/51 98/104/51 99/105/51 
f 110/116/51 99/105/51 100/106/51 
f 110/116/51 100/106/51 101/107/51 
f 110/116/51 101/107/51 102/108/51 
f 110/116/51 102/108/51 103/109/51 
f 110/116/51 103/109/51 104/110/51 
f 110/116/51 104/110/51 105/111/51 
f 110/116/51 105/111/51 106/112/51 
f 110/116/51 106/112/51 107/113/51 
f 110/116/51 107/113/51 108/114/51 
f 110/116/51 108/114/51 109/115/51 
f 110/116/51 109/115/51 93/98/51 
# 216 faces

